<svg width="318" height="49" viewBox="0 0 318 49" fill="none" xmlns="http://www.w3.org/2000/svg">
<path d="M4.30765 40.568L28.3269 0C29.4014 1.8068 30.3858 3.44039 31.3492 5.07696C39.4366 18.9341 47.5241 32.7913 55.6116 46.6484C56.4219 48.0341 56.3289 48.0849 54.7832 48.3567C51.2777 48.9778 48.9367 47.4846 47.295 44.531C41.5596 34.174 35.4009 24.0619 29.4284 13.8482C28.7591 12.7014 28.645 12.6955 27.9607 13.8482C24.1071 20.3945 20.2584 26.9408 16.4148 33.4871C15.7785 34.5682 15.8596 34.6817 17.1711 34.6817C20.8447 34.6817 24.5213 34.7116 28.1948 34.6817C28.728 34.642 29.2604 34.7689 29.7177 35.0446C30.175 35.3203 30.5344 35.7311 30.7459 36.2197C31.1751 37.0559 31.6853 37.8563 32.1145 38.6955C32.3666 39.1942 33.0149 39.6691 32.6427 40.2664C32.3186 40.8069 31.6253 40.565 31.0941 40.565C25.2476 40.5809 19.4001 40.5809 13.5516 40.565L4.30765 40.568Z" fill="white"/>
<path d="M46.5357 46.8336C43.0092 40.8816 39.4707 34.9415 35.9652 28.9686C35.7758 28.6017 35.4815 28.2987 35.1194 28.0978C34.7573 27.8969 34.3436 27.8071 33.9303 27.8397C32.2316 27.8537 30.5308 27.8467 28.8281 27.8188C28.45 27.8188 27.9277 28.0339 27.7206 27.6815C27.4655 27.2514 27.8287 26.7855 28.0208 26.3644C28.2879 25.806 28.7921 25.6596 29.4044 25.6716C30.905 25.7014 32.4387 25.6716 34.1224 25.6716C32.4297 22.7897 30.803 20.066 29.2273 17.3215C28.7471 16.4853 28.492 16.315 27.9217 17.2797C25.0915 22.0401 22.2193 26.7706 19.3441 31.5131C18.7978 32.409 19.3861 32.5076 20.0914 32.5046C23.1317 32.5046 26.175 32.5374 29.2153 32.4538C30.5719 32.415 31.3912 32.8779 32.0305 34.0904C33.273 36.4527 34.6716 38.7313 36.0072 41.0458C36.1963 41.3713 36.6074 41.676 36.3073 42.0911C36.0072 42.5062 35.599 42.3031 35.2118 42.3091C30.79 42.3529 26.3701 42.4057 21.9522 42.4674H16.0306L11.0485 42.324L7.49201 42.2643C6.18667 42.1318 4.87046 42.3732 3.69839 42.9601C3.38807 43.1063 3.08734 43.2719 2.79801 43.4559C1.3694 44.5011 0.892191 46.1706 0.0968512 47.6369C-0.203276 48.1775 0.243911 48.4074 0.757131 48.3985C1.81058 48.3985 2.85803 48.3537 3.92349 48.3298H11.0365L16.0186 48.2939H21.9582C29.9396 48.3178 37.918 48.3387 45.8934 48.3566C47.0339 48.3507 47.193 47.9565 46.5357 46.8336Z" fill="white"/>
<path d="M90.3342 16.3947H96.8421V47.6822H90.303L90.0527 43.1455C89.1349 44.7516 87.8938 46.0448 86.3295 47.0251C84.765 48.0056 82.9192 48.4957 80.7916 48.4957C78.497 48.4957 76.3384 48.0681 74.315 47.213C72.2918 46.3369 70.5083 45.127 68.9649 43.5835C67.4423 42.0401 66.2532 40.2671 65.398 38.2647C64.5428 36.2413 64.1152 34.0721 64.1152 31.7568C64.1152 29.525 64.5324 27.4287 65.3667 25.4681C66.2012 23.4866 67.3588 21.7553 68.8396 20.2743C70.3206 18.7934 72.031 17.6358 73.9709 16.8014C75.9315 15.9462 78.0278 15.5186 80.2596 15.5186C82.5332 15.5186 84.5357 16.04 86.2668 17.0831C88.019 18.105 89.4687 19.4191 90.6158 21.0252L90.3342 16.3947ZM80.6352 42.2069C82.4707 42.2069 84.0768 41.7585 85.4534 40.8615C86.83 39.9438 87.8938 38.7132 88.6448 37.1696C89.4165 35.626 89.8024 33.9157 89.8024 32.0384C89.8024 30.1403 89.4165 28.4196 88.6448 26.876C87.8729 25.3324 86.7988 24.1122 85.4221 23.2154C84.0663 22.2976 82.4707 21.8388 80.6352 21.8388C78.8204 21.8388 77.1622 22.2976 75.6603 23.2154C74.1586 24.1331 72.9697 25.3637 72.0936 26.9073C71.2175 28.4509 70.7795 30.1612 70.7795 32.0384C70.7795 33.9366 71.228 35.6573 72.1248 37.2009C73.0426 38.7236 74.2421 39.9438 75.7229 40.8615C77.2248 41.7585 78.8621 42.2069 80.6352 42.2069ZM103.085 47.6822V16.3947H109.593V19.7112C110.678 18.4179 112.013 17.3959 113.598 16.645C115.183 15.894 116.894 15.5186 118.729 15.5186C119.897 15.5186 121.055 15.675 122.202 15.988L119.605 22.5583C118.792 22.2454 117.978 22.089 117.165 22.089C115.788 22.089 114.526 22.4331 113.379 23.1215C112.232 23.789 111.314 24.6962 110.626 25.8435C109.937 26.9908 109.593 28.2632 109.593 29.6605V47.6822H103.085ZM126.062 47.6822V16.3947H132.57V19.7112C133.655 18.4179 134.978 17.3959 136.544 16.645C138.128 15.894 139.839 15.5186 141.675 15.5186C143.907 15.5186 145.96 16.0609 147.839 17.1456C149.716 18.2093 151.208 19.6277 152.312 21.4006C153.417 19.6277 154.889 18.2093 156.723 17.1456C158.581 16.0609 160.624 15.5186 162.856 15.5186C165.171 15.5186 167.279 16.0819 169.176 17.2082C171.074 18.3346 172.587 19.8467 173.713 21.7449C174.84 23.643 175.403 25.7496 175.403 28.0649V47.6822H168.894V29.7231C168.894 28.3465 168.562 27.0846 167.893 25.9373C167.226 24.7902 166.329 23.862 165.203 23.1528C164.077 22.4435 162.825 22.089 161.449 22.089C160.072 22.089 158.821 22.4228 157.693 23.0903C156.567 23.7577 155.671 24.6649 155.003 25.8122C154.336 26.9595 154.002 28.2632 154.002 29.7231V47.6822H147.495V29.7231C147.495 28.2632 147.161 26.9595 146.492 25.8122C145.825 24.6649 144.918 23.7577 143.771 23.0903C142.644 22.4228 141.393 22.089 140.017 22.089C138.66 22.089 137.409 22.4435 136.263 23.1528C135.135 23.862 134.239 24.7902 133.571 25.9373C132.904 27.0846 132.57 28.3465 132.57 29.7231V47.6822H126.062ZM205.401 16.3947H211.91V47.6822H205.37L205.12 43.1455C204.203 44.7516 202.961 46.0448 201.397 47.0251C199.833 48.0056 197.986 48.4957 195.858 48.4957C193.565 48.4957 191.405 48.0681 189.383 47.213C187.359 46.3369 185.576 45.127 184.032 43.5835C182.509 42.0401 181.32 40.2671 180.466 38.2647C179.609 36.2413 179.183 34.0721 179.183 31.7568C179.183 29.525 179.6 27.4287 180.434 25.4681C181.269 23.4866 182.427 21.7553 183.907 20.2743C185.389 18.7934 187.098 17.6358 189.039 16.8014C190.998 15.9462 193.096 15.5186 195.327 15.5186C197.6 15.5186 199.603 16.04 201.335 17.0831C203.087 18.105 204.535 19.4191 205.683 21.0252L205.401 16.3947ZM195.702 42.2069C197.538 42.2069 199.143 41.7585 200.521 40.8615C201.898 39.9438 202.961 38.7132 203.712 37.1696C204.484 35.626 204.87 33.9157 204.87 32.0384C204.87 30.1403 204.484 28.4196 203.712 26.876C202.94 25.3324 201.866 24.1122 200.49 23.2154C199.133 22.2976 197.538 21.8388 195.702 21.8388C193.888 21.8388 192.23 22.2976 190.728 23.2154C189.226 24.1331 188.036 25.3637 187.16 26.9073C186.284 28.4509 185.846 30.1612 185.846 32.0384C185.846 33.9366 186.296 35.6573 187.191 37.2009C188.11 38.7236 189.309 39.9438 190.791 40.8615C192.292 41.7585 193.929 42.2069 195.702 42.2069ZM227.82 48.2768C226.111 48.2349 224.441 47.9221 222.815 47.3381C221.188 46.7541 219.769 45.9615 218.56 44.9603C217.35 43.959 216.484 42.8221 215.962 41.5499L219.749 39.9229C220.081 40.7364 220.697 41.4873 221.595 42.1756C222.512 42.8431 223.556 43.3854 224.723 43.8026C225.892 44.1989 227.049 44.397 228.195 44.397C229.468 44.397 230.657 44.1884 231.763 43.7713C232.868 43.3541 233.765 42.7596 234.454 41.9879C235.163 41.1953 235.517 40.2671 235.517 39.2033C235.517 38.0561 235.142 37.1592 234.391 36.5125C233.64 35.845 232.69 35.3236 231.544 34.9482C230.397 34.5519 229.218 34.1765 228.008 33.8218C225.796 33.2169 223.847 32.5494 222.158 31.8194C220.468 31.0893 219.143 30.1612 218.185 29.0349C217.245 27.8876 216.775 26.4171 216.775 24.6233C216.775 22.7252 217.307 21.0878 218.372 19.7112C219.456 18.3137 220.864 17.2395 222.596 16.4885C224.347 15.7168 226.215 15.3309 228.195 15.3309C230.741 15.3309 233.056 15.8836 235.142 16.9891C237.248 18.0947 238.771 19.5651 239.709 21.4006L236.174 23.4969C235.799 22.6418 235.204 21.9013 234.391 21.2755C233.578 20.6498 232.649 20.1597 231.607 19.805C230.584 19.4504 229.54 19.2627 228.477 19.2418C227.143 19.221 225.902 19.4191 224.754 19.8363C223.607 20.2326 222.68 20.827 221.97 21.6196C221.282 22.4122 220.938 23.3822 220.938 24.5294C220.938 25.6767 221.282 26.5526 221.97 27.1576C222.658 27.7416 223.587 28.2213 224.754 28.5967C225.943 28.9514 227.278 29.3686 228.758 29.8484C230.657 30.4531 232.44 31.1415 234.109 31.9132C235.777 32.6851 237.122 33.6445 238.145 34.7918C239.167 35.939 239.668 37.3886 239.647 39.1408C239.647 41.0179 239.083 42.6554 237.957 44.0529C236.831 45.4504 235.371 46.5246 233.578 47.2755C231.783 48.0056 229.865 48.3393 227.82 48.2768ZM258.563 48.4957C255.683 48.4957 253.055 47.7552 250.678 46.2743C248.32 44.7933 246.433 42.8118 245.016 40.3297C243.618 37.8266 242.918 35.0629 242.918 32.0384C242.918 29.744 243.325 27.606 244.138 25.6245C244.953 23.6221 246.068 21.87 247.487 20.3681C248.926 18.8455 250.594 17.6565 252.492 16.8014C254.391 15.9462 256.414 15.5186 258.563 15.5186C261.441 15.5186 264.059 16.259 266.415 17.74C268.794 19.221 270.681 21.2129 272.079 23.7159C273.496 26.2189 274.206 28.993 274.206 32.0384C274.206 34.312 273.799 36.4396 272.986 38.4211C272.173 40.4026 271.047 42.1548 269.607 43.6775C268.188 45.1792 266.53 46.3578 264.632 47.213C262.755 48.0681 260.731 48.4957 258.563 48.4957ZM258.563 44.1154C260.69 44.1154 262.598 43.5627 264.288 42.4571C265.998 41.3309 267.344 39.8499 268.325 38.0144C269.326 36.1788 269.826 34.1869 269.826 32.0384C269.826 29.8484 269.326 27.8354 268.325 25.9999C267.322 24.1435 265.967 22.6627 264.256 21.5571C262.567 20.4516 260.669 19.8989 258.563 19.8989C256.434 19.8989 254.516 20.462 252.805 21.5883C251.116 22.6939 249.771 24.1644 248.77 25.9999C247.788 27.8354 247.299 29.8484 247.299 32.0384C247.299 34.2911 247.81 36.3353 248.832 38.1708C249.855 39.9854 251.22 41.4351 252.93 42.5198C254.641 43.5835 256.518 44.1154 258.563 44.1154ZM286.288 8.22863V16.3947H295.675V20.775H286.288V47.6822H281.907V20.775H277.621V16.3947H281.907V8.22863C281.907 6.70597 282.272 5.32932 283.002 4.09868C283.754 2.84717 284.755 1.8564 286.006 1.12636C287.258 0.375463 288.644 0 290.167 0C291.273 0 292.337 0.219015 293.358 0.657043C294.402 1.09507 295.33 1.74168 296.144 2.59687L293.014 5.69434C292.681 5.27718 292.253 4.95387 291.731 4.72442C291.231 4.49498 290.709 4.38026 290.167 4.38026C289.103 4.38026 288.186 4.75572 287.414 5.50661C286.663 6.25752 286.288 7.16485 286.288 8.22863ZM317.737 20.775H310.259L310.228 47.6822H305.848L305.879 20.775H300.216V16.3947H305.879L305.848 6.57038H310.228L310.259 16.3947H317.737V20.775Z" fill="white"/>
</svg>
