<svg width="1164" height="200" viewBox="0 0 1164 200" fill="none" xmlns="http://www.w3.org/2000/svg">
<path d="M0.237539 100.36V0.300003H98.5675V42.9C98.8075 42.94 99.0375 42.98 99.2775 43.02C100.098 41.19 100.988 39.38 101.718 37.52C104.238 31.03 108.568 25.85 113.238 20.83C122.738 10.62 135.018 5.86001 148.038 2.21001C155.208 0.200007 162.428 0 169.728 0C178.178 0 186.638 0.0100043 195.088 0.0200043C195.938 0.0200043 196.778 0.0200043 197.788 0.0200043C199.588 10.84 198.468 21.15 194.868 31.24C192.088 39.04 187.838 45.94 182.908 52.57C178.218 58.87 172.378 63.86 166.508 68.93C156.988 77.14 145.878 82.49 134.658 87.82C123.578 93.08 111.838 95.87 100.008 98.52C99.0375 98.74 97.9676 99.08 97.2276 99.7C91.2776 104.76 85.2776 109.78 79.5376 115.07C74.6576 119.57 71.4276 125.33 68.7176 131.32C67.6776 133.62 67.0276 136.25 66.8476 138.77C66.5276 143.39 68.9175 145.99 73.5275 146.68C78.9075 147.49 84.0275 146.2 88.9575 144.32C92.3775 143.02 95.6175 141.25 98.8675 139.55C99.4875 139.23 99.9875 138.31 100.178 137.58C103.568 124.57 110.278 114.05 121.798 106.57C138.678 95.62 156.228 95.09 173.078 104.95C199.468 120.4 204.658 152.18 191.238 174.39C187.338 180.84 182.338 185.92 176.238 190.12C160.958 200.65 144.548 201.7 128.208 193.96C112.568 186.55 102.678 173.9 99.9475 156.32C99.8075 155.39 99.6075 154.47 99.3175 152.89C98.6275 154.73 98.2375 156.02 97.6775 157.23C96.3075 160.19 95.1176 163.28 93.4076 166.03C86.3776 177.31 76.1176 184.63 64.2176 190.21C51.3476 196.24 37.8975 198.46 23.8675 198.26C17.2275 198.16 10.5776 198.24 3.93755 198.23C2.91755 198.23 1.89754 198.23 0.767537 198.23C-0.322463 191.58 -0.202475 185.24 0.817525 178.91C3.04753 165.18 9.20753 153.39 17.9475 142.66C23.6275 135.69 30.4675 130.19 37.4275 124.68C47.2775 116.88 58.3475 111.44 69.9875 107.09C77.6775 104.22 85.6175 102.01 93.4375 99.49C93.8975 99.34 94.3475 99.14 95.4975 98.69C63.3275 99.25 31.8975 99.79 0.237539 100.34V100.36ZM99.0976 97.97C100.408 97.04 101.238 96.57 101.918 95.95C108.538 89.83 115.258 83.8 121.708 77.5C125.878 73.43 128.658 68.29 130.798 62.91C134.538 53.53 130.178 48.03 120.118 49.05C112.858 49.79 106.288 52.33 100.278 56.33C99.5175 56.84 98.9975 58.28 98.9975 59.3C98.9575 71.2 99.0476 83.1 99.0976 95C99.0976 95.75 99.0976 96.5 99.0976 97.97Z" fill="#E93E20"/>
<path d="M246.633 0.0078125H285.343C310.33 0.0078125 327.207 1.15502 335.973 3.44944C344.821 5.74386 351.539 9.51327 356.127 14.7577C360.715 20.002 363.582 25.861 364.729 32.3346C365.876 38.7262 366.45 51.3455 366.45 70.1925V139.886C366.45 157.749 365.59 169.713 363.869 175.777C362.231 181.759 359.322 186.47 355.144 189.912C350.966 193.272 345.804 195.648 339.66 197.041C333.516 198.352 324.258 199.008 311.887 199.008H246.633V0.0078125ZM298.369 34.0554V164.96C305.824 164.96 310.412 163.485 312.133 160.535C313.853 157.503 314.713 149.35 314.713 136.075V58.7614C314.713 49.7476 314.427 43.9705 313.853 41.4303C313.28 38.89 311.969 37.0463 309.921 35.8991C307.873 34.67 304.022 34.0554 298.369 34.0554Z" fill="white"/>
<path d="M475.084 0.0078125L504.7 199.008H451.735L449.154 163.239H430.598L427.526 199.008H373.946L400.244 0.0078125H475.084ZM447.68 127.963C445.058 105.428 442.436 77.6084 439.815 44.5032C434.572 82.525 431.294 110.345 429.984 127.963H447.68Z" fill="white"/>
<path d="M636.806 0.0078125L607.19 89.859L639.633 199.008H586.176L565.285 113.705V199.008H513.548V0.0078125H565.285V77.3216L588.265 0.0078125H636.806Z" fill="white"/>
<path d="M738.067 0.0078125L767.683 199.008H714.718L712.137 163.239H693.581L690.509 199.008H636.929L663.228 0.0078125H738.067ZM710.663 127.963C708.041 105.428 705.42 77.6084 702.798 44.5032C697.555 82.525 694.278 110.345 692.967 127.963H710.663Z" fill="white"/>
<path d="M892.047 0.0078125V199.008H846.701L819.789 108.542V199.008H776.531V0.0078125H819.789L848.79 89.6131V0.0078125H892.047Z" fill="white"/>
<path d="M1035.83 0.0078125L1009.53 199.008H931.003L901.141 0.0078125H955.704C962.012 54.8281 966.518 101.167 969.222 139.025C971.925 100.757 974.752 66.7509 977.701 37.0053L981.265 0.0078125H1035.83Z" fill="white"/>
<path d="M1134.02 0.0078125L1163.63 199.008H1110.67L1108.09 163.239H1089.53L1086.46 199.008H1032.88L1059.18 0.0078125H1134.02ZM1106.61 127.963C1103.99 105.428 1101.37 77.6084 1098.75 44.5032C1093.5 82.525 1090.23 110.345 1088.92 127.963H1106.61Z" fill="white"/>
</svg>
